REM DIRINDEX 1\2\6,1\2\7,1\2\8,1\2\9,1\3\10,1\3\11,1\4\12,1\4\13,1\4\14,1\5\15,1\5\16,1\5\17
REM DIRNAME folder01,folder02,folder03,folder04,folder05,folder06,folder07,folder08,folder09,folder10,folder11,folder12,folder13,folder14,folder15,folder16,folder17
TITLE ""
FILE "1400_2_sec04_0350_0367.mp3" MP3
  TRACK 01 AUDIO
    TITLE "0:"
    INDEX 01 00:00:00
  TRACK 02 AUDIO
    TITLE "13:cjc029_2279"
    INDEX 01 00:00:17
  TRACK 03 AUDIO
    TITLE "0:"
    INDEX 01 00:01:26
  TRACK 04 AUDIO
    TITLE "14:cjc029_2280"
    INDEX 01 00:01:30
  TRACK 05 AUDIO
    TITLE "0:"
    INDEX 01 00:04:52
  TRACK 06 AUDIO
    TITLE "13:cjc029_2281"
    INDEX 01 00:05:34
  TRACK 07 AUDIO
    TITLE "0:"
    INDEX 01 00:06:69
  TRACK 08 AUDIO
    TITLE "14:cjc029_2282"
    INDEX 01 00:07:00
  TRACK 09 AUDIO
    TITLE "0:"
    INDEX 01 00:08:01
  TRACK 10 AUDIO
    TITLE "13:cjc029_2283"
    INDEX 01 00:08:68
  TRACK 11 AUDIO
    TITLE "0:"
    INDEX 01 00:10:10
  TRACK 12 AUDIO
    TITLE "14:cjc029_2284"
    INDEX 01 00:10:16
  TRACK 13 AUDIO
    TITLE "0:"
    INDEX 01 00:11:29
  TRACK 14 AUDIO
    TITLE "13:cjc029_2285"
    INDEX 01 00:12:14
  TRACK 15 AUDIO
    TITLE "0:"
    INDEX 01 00:13:35
  TRACK 16 AUDIO
    TITLE "14:cjc029_2286"
    INDEX 01 00:13:41
  TRACK 17 AUDIO
    TITLE "0:"
    INDEX 01 00:15:56
  TRACK 18 AUDIO
    TITLE "13:cjc029_2287"
    INDEX 01 00:16:38
  TRACK 19 AUDIO
    TITLE "0:"
    INDEX 01 00:17:70
  TRACK 20 AUDIO
    TITLE "14:cjc029_2288"
    INDEX 01 00:18:01
  TRACK 21 AUDIO
    TITLE "0:"
    INDEX 01 00:21:35
  TRACK 22 AUDIO
    TITLE "13:cjc029_2289"
    INDEX 01 00:22:17
  TRACK 23 AUDIO
    TITLE "0:"
    INDEX 01 00:23:32
  TRACK 24 AUDIO
    TITLE "14:cjc029_2290"
    INDEX 01 00:23:38
  TRACK 25 AUDIO
    TITLE "0:"
    INDEX 01 00:25:37
  TRACK 26 AUDIO
    TITLE "13:cjc029_2291"
    INDEX 01 00:26:17
  TRACK 27 AUDIO
    TITLE "0:"
    INDEX 01 00:27:55
  TRACK 28 AUDIO
    TITLE "14:cjc029_2292"
    INDEX 01 00:27:61
  TRACK 29 AUDIO
    TITLE "0:"
    INDEX 01 00:30:06
  TRACK 30 AUDIO
    TITLE "13:cjc029_2293"
    INDEX 01 00:30:65
  TRACK 31 AUDIO
    TITLE "0:"
    INDEX 01 00:32:17
  TRACK 32 AUDIO
    TITLE "14:cjc029_2294"
    INDEX 01 00:32:23
  TRACK 33 AUDIO
    TITLE "0:"
    INDEX 01 00:34:32
  TRACK 34 AUDIO
    TITLE "13:cjc029_2295"
    INDEX 01 00:35:15
  TRACK 35 AUDIO
    TITLE "0:"
    INDEX 01 00:36:36
  TRACK 36 AUDIO
    TITLE "14:cjc029_2296"
    INDEX 01 00:36:42
  TRACK 37 AUDIO
    TITLE "0:"
    INDEX 01 00:39:05
  TRACK 38 AUDIO
    TITLE "13:cjc029_2297"
    INDEX 01 00:39:60
  TRACK 39 AUDIO
    TITLE "0:"
    INDEX 01 00:41:20
  TRACK 40 AUDIO
    TITLE "14:cjc029_2298"
    INDEX 01 00:41:24
  TRACK 41 AUDIO
    TITLE "0:"
    INDEX 01 00:42:43
  TRACK 42 AUDIO
    TITLE "13:cjc029_2299"
    INDEX 01 00:43:27
  TRACK 43 AUDIO
    TITLE "0:"
    INDEX 01 00:44:38
  TRACK 44 AUDIO
    TITLE "14:cjc029_2300"
    INDEX 01 00:44:48
  TRACK 45 AUDIO
    TITLE "0:"
    INDEX 01 00:45:65
  TRACK 46 AUDIO
    TITLE "13:cjc029_2301"
    INDEX 01 00:46:47
  TRACK 47 AUDIO
    TITLE "0:"
    INDEX 01 00:48:02
  TRACK 48 AUDIO
    TITLE "14:cjc029_2302"
    INDEX 01 00:48:10
  TRACK 49 AUDIO
    TITLE "0:"
    INDEX 01 00:49:16
  TRACK 50 AUDIO
    TITLE "13:cjc029_2303"
    INDEX 01 00:49:74
  TRACK 51 AUDIO
    TITLE "0:"
    INDEX 01 00:50:68
  TRACK 52 AUDIO
    TITLE "14:cjc029_2304"
    INDEX 01 00:51:09
  TRACK 53 AUDIO
    TITLE "0:"
    INDEX 01 00:53:51
  TRACK 54 AUDIO
    TITLE "13:cjc029_2305"
    INDEX 01 00:54:36
  TRACK 55 AUDIO
    TITLE "0:"
    INDEX 01 00:55:42
  TRACK 56 AUDIO
    TITLE "14:cjc029_2306"
    INDEX 01 00:55:50
  TRACK 57 AUDIO
    TITLE "0:"
    INDEX 01 00:59:18
  TRACK 58 AUDIO
    TITLE "13:cjc029_2307"
    INDEX 01 01:00:08
  TRACK 59 AUDIO
    TITLE "0:"
    INDEX 01 01:01:17
  TRACK 60 AUDIO
    TITLE "14:cjc029_2308"
    INDEX 01 01:01:23
  TRACK 61 AUDIO
    TITLE "0:"
    INDEX 01 01:02:28
  TRACK 62 AUDIO
    TITLE "13:cjc029_2309"
    INDEX 01 01:03:08
  TRACK 63 AUDIO
    TITLE "0:"
    INDEX 01 01:04:29
  TRACK 64 AUDIO
    TITLE "14:cjc029_2310"
    INDEX 01 01:04:35
  TRACK 65 AUDIO
    TITLE "0:"
    INDEX 01 01:07:02
  TRACK 66 AUDIO
    TITLE "13:cjc029_2311"
    INDEX 01 01:07:59
  TRACK 67 AUDIO
    TITLE "0:"
    INDEX 01 01:08:74
  TRACK 68 AUDIO
    TITLE "14:cjc029_2312"
    INDEX 01 01:09:05
  TRACK 69 AUDIO
    TITLE "0:"
    INDEX 01 01:11:31
  TRACK 70 AUDIO
    TITLE "13:cjc029_2313"
    INDEX 01 01:12:13
  TRACK 71 AUDIO
    TITLE "0:"
    INDEX 01 01:13:30
  TRACK 72 AUDIO
    TITLE "14:cjc029_2314"
    INDEX 01 01:13:38
  TRACK 73 AUDIO
    TITLE "0:"
    INDEX 01 01:15:62
